<svg width="1000" height="581" viewBox="0 0 1000 581" fill="none" xmlns="http://www.w3.org/2000/svg">
<path d="M491.722 161.883L367.448 340.284C362.829 346.914 367.573 356 375.653 356H622.037C630.08 356 634.832 346.988 630.289 340.352L508.18 161.951C504.228 156.177 495.721 156.142 491.722 161.883Z" fill="#002F56"/>
<path d="M274.114 290.5H230.966C223.839 290.5 219 283.258 221.727 276.673L324.443 28.6735C325.991 24.9366 329.637 22.5 333.682 22.5H691.336C694.575 22.5 697.614 24.0695 699.49 26.7112L738.907 82.2346C741.36 85.69 745.725 87.2241 749.8 86.0634L1039.26 3.62797C1045.65 1.80922 1052 6.60532 1052 13.2456V192C1052 197.523 1047.52 202 1042 202H658.557C655.101 202 651.89 200.216 650.065 197.281L604.912 124.682C603.099 121.767 599.919 119.986 596.487 119.964L381.43 118.539C377.774 118.515 374.396 120.488 372.621 123.685L282.857 285.354C281.094 288.53 277.747 290.5 274.114 290.5Z" fill="#FFA700"/>
<path d="M724.886 290.5H768.034C775.161 290.5 780 297.742 777.273 304.327L674.557 552.327C673.009 556.063 669.363 558.5 665.318 558.5H307.664C304.425 558.5 301.386 556.931 299.51 554.289L260.093 498.765C257.64 495.31 253.275 493.776 249.2 494.937L-40.261 577.372C-46.6473 579.191 -53 574.395 -53 567.755V389C-53 383.477 -48.5228 379 -43 379H340.443C343.899 379 347.11 380.784 348.935 383.719L394.088 456.318C395.901 459.233 399.081 461.014 402.513 461.037L617.57 462.461C621.226 462.485 624.604 460.512 626.379 457.315L716.143 295.646C717.906 292.47 721.253 290.5 724.886 290.5Z" fill="#FFA700"/>
</svg>
